<svg xmlns="http://www.w3.org/2000/svg" xmlns:xlink="http://www.w3.org/1999/xlink" width="170" zoomAndPan="magnify" viewBox="0 0 127.5 74.999997" height="100" preserveAspectRatio="xMidYMid meet" version="1.2"><defs/><g id="fa24510bce"><g style="fill:#000000;fill-opacity:1;"><g transform="translate(15.521087, 36.267131)"><path style="stroke:none" d="M 23.113281 0 L 18.816406 -8.15625 L 23.113281 -8.15625 L 23.113281 -29.253906 L 1.140625 -29.253906 L 1.140625 0 L 8.464844 0 L 8.464844 -8.15625 L 11.621094 -8.15625 L 15.789062 0 Z M 15.789062 -14.824219 L 8.464844 -14.824219 L 8.464844 -22.542969 L 15.789062 -22.542969 Z M 15.789062 -14.824219 "/></g></g><g style="fill:#000000;fill-opacity:1;"><g transform="translate(39.771943, 36.267131)"><path style="stroke:none" d="M 23.113281 0 L 23.113281 -29.253906 L 1.140625 -29.253906 L 1.140625 0 L 8.464844 0 L 8.464844 -8.15625 L 15.789062 -8.15625 L 15.789062 0 Z M 15.789062 -14.824219 L 8.464844 -14.824219 L 8.464844 -22.542969 L 15.789062 -22.542969 Z M 15.789062 -14.824219 "/></g></g><g style="fill:#000000;fill-opacity:1;"><g transform="translate(64.022798, 36.267131)"><path style="stroke:none" d="M 22.632812 -22.542969 L 22.632812 -29.253906 L 0.65625 -29.253906 L 0.65625 -22.542969 L 8.027344 -22.542969 L 8.027344 0 L 15.351562 0 L 15.351562 -22.542969 Z M 22.632812 -22.542969 "/></g></g><g style="fill:#000000;fill-opacity:1;"><g transform="translate(87.30888, 36.267131)"><path style="stroke:none" d="M 23.027344 0 L 23.027344 -6.667969 L 8.464844 -6.667969 L 8.464844 -11.492188 L 23.027344 -11.492188 L 23.027344 -17.9375 L 8.464844 -17.9375 L 8.464844 -22.542969 L 23.027344 -22.542969 L 23.027344 -29.253906 L 1.140625 -29.253906 L 1.140625 0 Z M 23.027344 0 "/></g></g><g style="fill:#000000;fill-opacity:1;"><g transform="translate(15.594421, 66.382661)"><path style="stroke:none" d="M 18.441406 0 L 18.441406 -14.3125 L 6.753906 -14.3125 L 6.753906 -17.984375 L 18.441406 -17.984375 L 18.441406 -23.339844 L 0.910156 -23.339844 L 0.910156 -9.167969 L 12.597656 -9.167969 L 12.597656 -5.320312 L 0.910156 -5.320312 L 0.910156 0 Z M 18.441406 0 "/></g></g><g style="fill:#000000;fill-opacity:1;"><g transform="translate(34.910104, 66.382661)"><path style="stroke:none" d="M 18.054688 -17.984375 L 18.054688 -23.339844 L 0.523438 -23.339844 L 0.523438 -17.984375 L 6.402344 -17.984375 L 6.402344 0 L 12.246094 0 L 12.246094 -17.984375 Z M 18.054688 -17.984375 "/></g></g><g style="fill:#000000;fill-opacity:1;"><g transform="translate(53.490952, 66.382661)"><path style="stroke:none" d="M 18.441406 0 L 18.441406 -23.339844 L 12.597656 -23.339844 L 12.597656 -5.320312 L 6.753906 -5.320312 L 6.753906 -23.339844 L 0.910156 -23.339844 L 0.910156 0 Z M 18.441406 0 "/></g></g><g style="fill:#000000;fill-opacity:1;"><g transform="translate(72.841625, 66.382661)"><path style="stroke:none" d="M 18.371094 -9.167969 L 18.371094 -14.3125 L 6.753906 -14.3125 L 6.753906 -17.984375 L 18.371094 -17.984375 L 18.371094 -23.339844 L 0.910156 -23.339844 L 0.910156 0 L 6.753906 0 L 6.753906 -9.167969 Z M 18.371094 -9.167969 "/></g></g><g style="fill:#000000;fill-opacity:1;"><g transform="translate(92.122313, 66.382661)"><path style="stroke:none" d="M 18.371094 -9.167969 L 18.371094 -14.3125 L 6.753906 -14.3125 L 6.753906 -17.984375 L 18.371094 -17.984375 L 18.371094 -23.339844 L 0.910156 -23.339844 L 0.910156 0 L 6.753906 0 L 6.753906 -9.167969 Z M 18.371094 -9.167969 "/></g></g></g></svg>