<svg xmlns="http://www.w3.org/2000/svg" xmlns:xlink="http://www.w3.org/1999/xlink" width="512" zoomAndPan="magnify" viewBox="0 0 384 383.999986" height="512" preserveAspectRatio="xMidYMid meet" version="1.0"><defs><g/><clipPath id="e253d18065"><path d="M 30 27.859375 L 356.359375 27.859375 L 356.359375 354 L 30 354 Z M 30 27.859375 " clip-rule="nonzero"/></clipPath></defs><rect x="-38.4" width="460.8" fill="#ffffff" y="-38.399999" height="460.799983" fill-opacity="1"/><rect x="-38.4" width="460.8" fill="#d9d9d9" y="-38.399999" height="460.799983" fill-opacity="1"/><g clip-path="url(#e253d18065)"><path fill="#545454" d="M 328.984375 27.859375 L 216.128906 27.859375 C 208.660156 27.859375 198.226562 32.1875 192.953125 37.457031 L 38.226562 192.183594 C 27.660156 202.734375 27.660156 220.039062 38.226562 230.578125 L 153.433594 345.78125 C 163.972656 356.332031 181.257812 356.332031 191.816406 345.769531 L 346.542969 191.066406 C 351.8125 185.796875 356.136719 175.34375 356.136719 167.894531 L 356.136719 55.015625 C 356.136719 40.082031 343.914062 27.859375 328.984375 27.859375 Z M 274.675781 136.472656 C 259.679688 136.472656 247.519531 124.304688 247.519531 109.320312 C 247.519531 94.308594 259.679688 82.164062 274.675781 82.164062 C 289.671875 82.164062 301.832031 94.308594 301.832031 109.320312 C 301.832031 124.304688 289.671875 136.472656 274.675781 136.472656 Z M 274.675781 136.472656 " fill-opacity="1" fill-rule="nonzero"/></g><g fill="#545454" fill-opacity="1"><g transform="translate(130.486462, 259.973204)"><g><path d="M 25.578125 0.125 C 24.878906 0.125 24.265625 -0.113281 23.734375 -0.59375 C 23.210938 -1.070312 23 -1.660156 23.09375 -2.359375 L 27.03125 -35.5625 C 27.207031 -37.21875 26.460938 -38.046875 24.796875 -38.046875 L 6.03125 -38.046875 C 4.375 -38.046875 3.546875 -38.878906 3.546875 -40.546875 L 3.546875 -42.90625 C 3.546875 -44.5625 4.375 -45.390625 6.03125 -45.390625 L 25.578125 -45.390625 C 27.242188 -45.390625 28.164062 -46.222656 28.34375 -47.890625 L 31.484375 -74.265625 C 31.660156 -75.921875 30.921875 -76.75 29.265625 -76.75 L 9.578125 -76.75 C 7.910156 -76.75 7.078125 -77.582031 7.078125 -79.25 L 7.078125 -81.609375 C 7.078125 -83.265625 7.910156 -84.09375 9.578125 -84.09375 L 30.171875 -84.09375 C 31.835938 -84.09375 32.757812 -84.925781 32.9375 -86.59375 L 36.875 -120.3125 C 37.039062 -121.976562 37.867188 -122.8125 39.359375 -122.8125 L 42.25 -122.8125 C 42.945312 -122.8125 43.554688 -122.566406 44.078125 -122.078125 C 44.609375 -121.597656 44.828125 -121.007812 44.734375 -120.3125 L 40.796875 -86.59375 C 40.628906 -84.925781 41.375 -84.09375 43.03125 -84.09375 L 68.484375 -84.09375 C 70.148438 -84.09375 71.070312 -84.925781 71.25 -86.59375 L 75.171875 -120.3125 C 75.347656 -121.976562 76.179688 -122.8125 77.671875 -122.8125 L 80.5625 -122.8125 C 81.257812 -122.8125 81.867188 -122.566406 82.390625 -122.078125 C 82.921875 -121.597656 83.140625 -121.007812 83.046875 -120.3125 L 79.109375 -86.59375 C 78.941406 -84.925781 79.6875 -84.09375 81.34375 -84.09375 L 99.328125 -84.09375 C 100.984375 -84.09375 101.8125 -83.265625 101.8125 -81.609375 L 101.8125 -79.25 C 101.8125 -77.582031 100.984375 -76.75 99.328125 -76.75 L 80.421875 -76.75 C 78.765625 -76.75 77.847656 -75.921875 77.671875 -74.265625 L 74.515625 -47.890625 C 74.347656 -46.222656 75.09375 -45.390625 76.75 -45.390625 L 95.78125 -45.390625 C 97.4375 -45.390625 98.265625 -44.5625 98.265625 -42.90625 L 98.265625 -40.546875 C 98.265625 -38.878906 97.4375 -38.046875 95.78125 -38.046875 L 75.96875 -38.046875 C 74.300781 -38.046875 73.382812 -37.21875 73.21875 -35.5625 L 69.28125 -2.359375 C 69.101562 -0.703125 68.269531 0.125 66.78125 0.125 L 63.890625 0.125 C 63.191406 0.125 62.578125 -0.113281 62.046875 -0.59375 C 61.523438 -1.070312 61.3125 -1.660156 61.40625 -2.359375 L 65.34375 -35.5625 C 65.519531 -37.21875 64.773438 -38.046875 63.109375 -38.046875 L 37.65625 -38.046875 C 35.988281 -38.046875 35.070312 -37.21875 34.90625 -35.5625 L 30.96875 -2.359375 C 30.789062 -0.703125 29.957031 0.125 28.46875 0.125 Z M 38.4375 -45.390625 L 63.890625 -45.390625 C 65.554688 -45.390625 66.476562 -46.222656 66.65625 -47.890625 L 69.796875 -74.265625 C 69.972656 -75.921875 69.226562 -76.75 67.5625 -76.75 L 42.109375 -76.75 C 40.453125 -76.75 39.535156 -75.921875 39.359375 -74.265625 L 36.21875 -47.890625 C 36.039062 -46.222656 36.78125 -45.390625 38.4375 -45.390625 Z M 38.4375 -45.390625 "/></g></g></g></svg>