<svg xmlns="http://www.w3.org/2000/svg" xmlns:xlink="http://www.w3.org/1999/xlink" width="1024" zoomAndPan="magnify" viewBox="0 0 768 149.999998" height="200" preserveAspectRatio="xMidYMid meet" version="1.0"><defs><g/></defs><path fill="#ffffff" d="M 38.917969 72.921875 L 38.917969 97.558594 L 50.714844 97.558594 L 50.714844 83.679688 L 56.683594 83.679688 L 60.363281 90.621094 L 63.96875 97.558594 L 75.839844 97.558594 L 72.296875 90.96875 C 70.355469 87.289062 68.757812 84.164062 68.757812 84.027344 C 68.757812 83.820312 70.355469 83.679688 72.230469 83.679688 L 75.699219 83.679688 L 75.699219 48.285156 L 38.917969 48.285156 Z M 63.902344 65.980469 L 63.902344 72.574219 L 50.714844 72.574219 L 50.714844 59.390625 L 63.902344 59.390625 Z M 63.902344 65.980469 " fill-opacity="1" fill-rule="nonzero"/><path fill="#ffffff" d="M 80.558594 72.921875 L 80.558594 97.558594 L 92.355469 97.558594 L 92.355469 83.679688 L 105.542969 83.679688 L 105.542969 97.558594 L 117.339844 97.558594 L 117.339844 48.285156 L 80.558594 48.285156 Z M 101.308594 56.058594 L 102.835938 60.707031 L 108.527344 60.914062 L 114.21875 61.125 L 109.914062 64.179688 C 107.484375 65.914062 105.542969 67.785156 105.542969 68.410156 C 105.542969 69.035156 106.167969 71.394531 106.929688 73.617188 C 107.695312 75.835938 108.316406 77.917969 108.316406 78.265625 C 108.316406 78.542969 106.234375 77.292969 103.667969 75.492188 L 99.019531 72.089844 L 94.507812 75.421875 C 92.007812 77.226562 89.855469 78.683594 89.789062 78.542969 C 89.648438 78.472656 90.34375 76.113281 91.316406 73.269531 C 92.21875 70.492188 92.839844 67.996094 92.632812 67.648438 C 92.496094 67.371094 90.414062 65.703125 88.054688 64.109375 L 83.820312 61.125 L 89.578125 60.777344 L 95.339844 60.429688 L 97.074219 55.363281 C 97.976562 52.519531 99.019531 50.503906 99.296875 50.851562 C 99.574219 51.128906 100.476562 53.488281 101.308594 56.058594 Z M 101.308594 56.058594 " fill-opacity="1" fill-rule="nonzero"/><path fill="#ffffff" d="M 120.8125 53.835938 L 120.8125 59.390625 L 133.304688 59.390625 L 133.304688 97.558594 L 145.796875 97.558594 L 145.796875 59.390625 L 158.289062 59.390625 L 158.289062 48.285156 L 120.8125 48.285156 Z M 120.8125 53.835938 " fill-opacity="1" fill-rule="nonzero"/><path fill="#ffffff" d="M 161.757812 72.921875 L 161.757812 97.558594 L 198.539062 97.558594 L 198.539062 87.148438 L 186.257812 87.011719 L 173.902344 86.804688 L 173.695312 82.429688 L 173.488281 78.128906 L 198.539062 78.128906 L 198.539062 67.71875 L 173.554688 67.71875 L 173.554688 59.390625 L 198.539062 59.390625 L 198.539062 48.285156 L 161.757812 48.285156 Z M 161.757812 72.921875 " fill-opacity="1" fill-rule="nonzero"/><path fill="#ffffff" d="M 206.027344 63.175781 L 206.027344 78.304688 L 231.832031 78.304688 L 231.832031 87.203125 L 206.027344 87.203125 L 206.027344 97.878906 L 244.289062 97.878906 L 244.289062 67.625 L 218.484375 67.625 L 218.484375 58.726562 L 244.289062 58.726562 L 244.289062 48.050781 L 206.027344 48.050781 Z M 206.027344 63.175781 " fill-opacity="1" fill-rule="nonzero"/><path fill="#ffffff" d="M 247.847656 53.390625 L 247.847656 58.726562 L 260.304688 58.726562 L 260.304688 97.878906 L 272.761719 97.878906 L 272.761719 58.726562 L 285.21875 58.726562 L 285.21875 48.050781 L 247.847656 48.050781 Z M 247.847656 53.390625 " fill-opacity="1" fill-rule="nonzero"/><path fill="#ffffff" d="M 288.78125 72.964844 L 288.78125 97.878906 L 326.152344 97.878906 L 326.152344 48.050781 L 314.585938 48.050781 L 314.585938 87.203125 L 301.238281 87.203125 L 301.238281 48.050781 L 288.78125 48.050781 Z M 288.78125 72.964844 " fill-opacity="1" fill-rule="nonzero"/><path fill="#ffffff" d="M 330.601562 72.964844 L 330.601562 97.878906 L 343.058594 97.878906 L 343.058594 78.304688 L 367.972656 78.304688 L 367.972656 67.625 L 343.058594 67.625 L 343.058594 58.726562 L 367.972656 58.726562 L 367.972656 48.050781 L 330.601562 48.050781 Z M 330.601562 72.964844 " fill-opacity="1" fill-rule="nonzero"/><path fill="#ffffff" d="M 373.3125 72.964844 L 373.3125 97.878906 L 384.878906 97.878906 L 384.878906 78.304688 L 410.683594 78.304688 L 410.683594 67.625 L 384.878906 67.625 L 384.878906 58.726562 L 410.683594 58.726562 L 410.683594 48.050781 L 373.3125 48.050781 Z M 373.3125 72.964844 " fill-opacity="1" fill-rule="nonzero"/><g fill="#ffffff" fill-opacity="1"><g transform="translate(460.72516, 94.049077)"><g><path d="M 16.234375 -25.59375 L 10.015625 -25.59375 L 10.015625 0 L 5.09375 0 L 5.09375 -25.59375 L 1.25 -25.59375 L 1.25 -29.65625 L 5.09375 -29.65625 L 5.09375 -31.765625 C 5.09375 -35.078125 5.945312 -37.5 7.65625 -39.03125 C 9.375 -40.570312 12.125 -41.34375 15.90625 -41.34375 L 15.90625 -37.234375 C 13.738281 -37.234375 12.210938 -36.804688 11.328125 -35.953125 C 10.453125 -35.109375 10.015625 -33.710938 10.015625 -31.765625 L 10.015625 -29.65625 L 16.234375 -29.65625 Z M 16.234375 -25.59375 "/></g></g></g><g fill="#ffffff" fill-opacity="1"><g transform="translate(478.525871, 94.049077)"><g><path d="M 17.09375 0.484375 C 14.320312 0.484375 11.804688 -0.144531 9.546875 -1.40625 C 7.296875 -2.664062 5.53125 -4.457031 4.25 -6.78125 C 2.96875 -9.113281 2.328125 -11.8125 2.328125 -14.875 C 2.328125 -17.90625 2.984375 -20.582031 4.296875 -22.90625 C 5.617188 -25.238281 7.414062 -27.023438 9.6875 -28.265625 C 11.957031 -29.515625 14.5 -30.140625 17.3125 -30.140625 C 20.125 -30.140625 22.664062 -29.515625 24.9375 -28.265625 C 27.21875 -27.023438 29.015625 -25.25 30.328125 -22.9375 C 31.640625 -20.632812 32.296875 -17.945312 32.296875 -14.875 C 32.296875 -11.8125 31.617188 -9.113281 30.265625 -6.78125 C 28.921875 -4.457031 27.09375 -2.664062 24.78125 -1.40625 C 22.46875 -0.144531 19.90625 0.484375 17.09375 0.484375 Z M 17.09375 -3.84375 C 18.863281 -3.84375 20.523438 -4.253906 22.078125 -5.078125 C 23.628906 -5.910156 24.878906 -7.15625 25.828125 -8.8125 C 26.785156 -10.476562 27.265625 -12.5 27.265625 -14.875 C 27.265625 -17.257812 26.796875 -19.28125 25.859375 -20.9375 C 24.921875 -22.59375 23.691406 -23.828125 22.171875 -24.640625 C 20.660156 -25.453125 19.023438 -25.859375 17.265625 -25.859375 C 15.460938 -25.859375 13.8125 -25.453125 12.3125 -24.640625 C 10.8125 -23.828125 9.609375 -22.59375 8.703125 -20.9375 C 7.804688 -19.28125 7.359375 -17.257812 7.359375 -14.875 C 7.359375 -12.457031 7.800781 -10.421875 8.6875 -8.765625 C 9.570312 -7.109375 10.753906 -5.875 12.234375 -5.0625 C 13.710938 -4.25 15.332031 -3.84375 17.09375 -3.84375 Z M 17.09375 -3.84375 "/></g></g></g><g fill="#ffffff" fill-opacity="1"><g transform="translate(513.153402, 94.049077)"><g><path d="M 9.09375 -24.84375 C 9.957031 -26.53125 11.191406 -27.84375 12.796875 -28.78125 C 14.398438 -29.71875 16.359375 -30.1875 18.671875 -30.1875 L 18.671875 -25.109375 L 17.375 -25.109375 C 11.851562 -25.109375 9.09375 -22.113281 9.09375 -16.125 L 9.09375 0 L 4.171875 0 L 4.171875 -29.65625 L 9.09375 -29.65625 Z M 9.09375 -24.84375 "/></g></g></g><g fill="#ffffff" fill-opacity="1"><g transform="translate(533.33476, 94.049077)"><g/></g></g><g fill="#ffffff" fill-opacity="1"><g transform="translate(547.780933, 94.049077)"><g><path d="M 23.046875 -19.421875 C 24.421875 -19.203125 25.675781 -18.640625 26.8125 -17.734375 C 27.945312 -16.835938 28.847656 -15.722656 29.515625 -14.390625 C 30.179688 -13.054688 30.515625 -11.632812 30.515625 -10.125 C 30.515625 -8.207031 30.023438 -6.484375 29.046875 -4.953125 C 28.078125 -3.421875 26.660156 -2.210938 24.796875 -1.328125 C 22.941406 -0.441406 20.753906 0 18.234375 0 L 4.171875 0 L 4.171875 -37.71875 L 17.6875 -37.71875 C 20.25 -37.71875 22.429688 -37.289062 24.234375 -36.4375 C 26.046875 -35.59375 27.398438 -34.445312 28.296875 -33 C 29.203125 -31.5625 29.65625 -29.941406 29.65625 -28.140625 C 29.65625 -25.898438 29.050781 -24.050781 27.84375 -22.59375 C 26.632812 -21.132812 25.035156 -20.078125 23.046875 -19.421875 Z M 9.09375 -21.421875 L 17.375 -21.421875 C 19.675781 -21.421875 21.457031 -21.960938 22.71875 -23.046875 C 23.988281 -24.128906 24.625 -25.628906 24.625 -27.546875 C 24.625 -29.453125 23.988281 -30.945312 22.71875 -32.03125 C 21.457031 -33.113281 19.640625 -33.65625 17.265625 -33.65625 L 9.09375 -33.65625 Z M 17.796875 -4.0625 C 20.253906 -4.0625 22.164062 -4.632812 23.53125 -5.78125 C 24.90625 -6.9375 25.59375 -8.546875 25.59375 -10.609375 C 25.59375 -12.703125 24.867188 -14.351562 23.421875 -15.5625 C 21.984375 -16.769531 20.054688 -17.375 17.640625 -17.375 L 9.09375 -17.375 L 9.09375 -4.0625 Z M 17.796875 -4.0625 "/></g></g></g><g fill="#ffffff" fill-opacity="1"><g transform="translate(580.947615, 94.049077)"><g><path d="M 9.09375 -24.84375 C 9.957031 -26.53125 11.191406 -27.84375 12.796875 -28.78125 C 14.398438 -29.71875 16.359375 -30.1875 18.671875 -30.1875 L 18.671875 -25.109375 L 17.375 -25.109375 C 11.851562 -25.109375 9.09375 -22.113281 9.09375 -16.125 L 9.09375 0 L 4.171875 0 L 4.171875 -29.65625 L 9.09375 -29.65625 Z M 9.09375 -24.84375 "/></g></g></g><g fill="#ffffff" fill-opacity="1"><g transform="translate(601.128972, 94.049077)"><g><path d="M 2.328125 -14.9375 C 2.328125 -17.96875 2.9375 -20.625 4.15625 -22.90625 C 5.382812 -25.195312 7.070312 -26.972656 9.21875 -28.234375 C 11.363281 -29.503906 13.753906 -30.140625 16.390625 -30.140625 C 18.992188 -30.140625 21.25 -29.578125 23.15625 -28.453125 C 25.070312 -27.335938 26.5 -25.929688 27.4375 -24.234375 L 27.4375 -29.65625 L 32.40625 -29.65625 L 32.40625 0 L 27.4375 0 L 27.4375 -5.515625 C 26.457031 -3.785156 25.003906 -2.351562 23.078125 -1.21875 C 21.148438 -0.0820312 18.90625 0.484375 16.34375 0.484375 C 13.707031 0.484375 11.320312 -0.160156 9.1875 -1.453125 C 7.0625 -2.753906 5.382812 -4.578125 4.15625 -6.921875 C 2.9375 -9.265625 2.328125 -11.9375 2.328125 -14.9375 Z M 27.4375 -14.875 C 27.4375 -17.113281 26.984375 -19.0625 26.078125 -20.71875 C 25.179688 -22.382812 23.960938 -23.65625 22.421875 -24.53125 C 20.890625 -25.414062 19.207031 -25.859375 17.375 -25.859375 C 15.53125 -25.859375 13.847656 -25.425781 12.328125 -24.5625 C 10.816406 -23.695312 9.609375 -22.429688 8.703125 -20.765625 C 7.804688 -19.109375 7.359375 -17.164062 7.359375 -14.9375 C 7.359375 -12.664062 7.804688 -10.691406 8.703125 -9.015625 C 9.609375 -7.335938 10.816406 -6.054688 12.328125 -5.171875 C 13.847656 -4.285156 15.53125 -3.84375 17.375 -3.84375 C 19.207031 -3.84375 20.890625 -4.285156 22.421875 -5.171875 C 23.960938 -6.054688 25.179688 -7.335938 26.078125 -9.015625 C 26.984375 -10.691406 27.4375 -12.644531 27.4375 -14.875 Z M 27.4375 -14.875 "/></g></g></g><g fill="#ffffff" fill-opacity="1"><g transform="translate(637.704298, 94.049077)"><g><path d="M 18.609375 -30.1875 C 22.222656 -30.1875 25.144531 -29.09375 27.375 -26.90625 C 29.613281 -24.726562 30.734375 -21.585938 30.734375 -17.484375 L 30.734375 0 L 25.859375 0 L 25.859375 -16.78125 C 25.859375 -19.726562 25.117188 -21.988281 23.640625 -23.5625 C 22.160156 -25.132812 20.140625 -25.921875 17.578125 -25.921875 C 14.984375 -25.921875 12.921875 -25.109375 11.390625 -23.484375 C 9.859375 -21.859375 9.09375 -19.492188 9.09375 -16.390625 L 9.09375 0 L 4.171875 0 L 4.171875 -29.65625 L 9.09375 -29.65625 L 9.09375 -25.4375 C 10.0625 -26.945312 11.382812 -28.113281 13.0625 -28.9375 C 14.738281 -29.769531 16.585938 -30.1875 18.609375 -30.1875 Z M 18.609375 -30.1875 "/></g></g></g><g fill="#ffffff" fill-opacity="1"><g transform="translate(672.331829, 94.049077)"><g><path d="M 2.328125 -14.9375 C 2.328125 -17.96875 2.9375 -20.625 4.15625 -22.90625 C 5.382812 -25.195312 7.070312 -26.972656 9.21875 -28.234375 C 11.363281 -29.503906 13.773438 -30.140625 16.453125 -30.140625 C 18.753906 -30.140625 20.894531 -29.609375 22.875 -28.546875 C 24.863281 -27.484375 26.382812 -26.082031 27.4375 -24.34375 L 27.4375 -40.046875 L 32.40625 -40.046875 L 32.40625 0 L 27.4375 0 L 27.4375 -5.578125 C 26.457031 -3.804688 25.007812 -2.351562 23.09375 -1.21875 C 21.1875 -0.0820312 18.953125 0.484375 16.390625 0.484375 C 13.753906 0.484375 11.363281 -0.160156 9.21875 -1.453125 C 7.070312 -2.753906 5.382812 -4.578125 4.15625 -6.921875 C 2.9375 -9.265625 2.328125 -11.9375 2.328125 -14.9375 Z M 27.4375 -14.875 C 27.4375 -17.113281 26.984375 -19.0625 26.078125 -20.71875 C 25.179688 -22.382812 23.960938 -23.65625 22.421875 -24.53125 C 20.890625 -25.414062 19.207031 -25.859375 17.375 -25.859375 C 15.53125 -25.859375 13.847656 -25.425781 12.328125 -24.5625 C 10.816406 -23.695312 9.609375 -22.429688 8.703125 -20.765625 C 7.804688 -19.109375 7.359375 -17.164062 7.359375 -14.9375 C 7.359375 -12.664062 7.804688 -10.691406 8.703125 -9.015625 C 9.609375 -7.335938 10.816406 -6.054688 12.328125 -5.171875 C 13.847656 -4.285156 15.53125 -3.84375 17.375 -3.84375 C 19.207031 -3.84375 20.890625 -4.285156 22.421875 -5.171875 C 23.960938 -6.054688 25.179688 -7.335938 26.078125 -9.015625 C 26.984375 -10.691406 27.4375 -12.644531 27.4375 -14.875 Z M 27.4375 -14.875 "/></g></g></g><g fill="#ffffff" fill-opacity="1"><g transform="translate(708.907167, 94.049077)"><g><path d="M 14.65625 0.484375 C 12.382812 0.484375 10.347656 0.0976562 8.546875 -0.671875 C 6.742188 -1.453125 5.316406 -2.535156 4.265625 -3.921875 C 3.222656 -5.304688 2.648438 -6.90625 2.546875 -8.71875 L 7.625 -8.71875 C 7.769531 -7.238281 8.460938 -6.023438 9.703125 -5.078125 C 10.953125 -4.140625 12.585938 -3.671875 14.609375 -3.671875 C 16.484375 -3.671875 17.960938 -4.085938 19.046875 -4.921875 C 20.128906 -5.753906 20.671875 -6.800781 20.671875 -8.0625 C 20.671875 -9.363281 20.09375 -10.328125 18.9375 -10.953125 C 17.78125 -11.585938 15.992188 -12.210938 13.578125 -12.828125 C 11.378906 -13.398438 9.582031 -13.984375 8.1875 -14.578125 C 6.800781 -15.171875 5.613281 -16.054688 4.625 -17.234375 C 3.632812 -18.410156 3.140625 -19.953125 3.140625 -21.859375 C 3.140625 -23.367188 3.585938 -24.753906 4.484375 -26.015625 C 5.390625 -27.285156 6.671875 -28.289062 8.328125 -29.03125 C 9.992188 -29.769531 11.890625 -30.140625 14.015625 -30.140625 C 17.296875 -30.140625 19.945312 -29.304688 21.96875 -27.640625 C 23.988281 -25.984375 25.070312 -23.710938 25.21875 -20.828125 L 20.296875 -20.828125 C 20.179688 -22.378906 19.554688 -23.625 18.421875 -24.5625 C 17.285156 -25.5 15.765625 -25.96875 13.859375 -25.96875 C 12.085938 -25.96875 10.675781 -25.585938 9.625 -24.828125 C 8.582031 -24.078125 8.0625 -23.085938 8.0625 -21.859375 C 8.0625 -20.890625 8.375 -20.085938 9 -19.453125 C 9.632812 -18.816406 10.429688 -18.3125 11.390625 -17.9375 C 12.347656 -17.5625 13.671875 -17.140625 15.359375 -16.671875 C 17.492188 -16.085938 19.226562 -15.515625 20.5625 -14.953125 C 21.894531 -14.398438 23.039062 -13.5625 24 -12.4375 C 24.957031 -11.320312 25.453125 -9.863281 25.484375 -8.0625 C 25.484375 -6.4375 25.03125 -4.972656 24.125 -3.671875 C 23.226562 -2.378906 21.957031 -1.363281 20.3125 -0.625 C 18.675781 0.113281 16.789062 0.484375 14.65625 0.484375 Z M 14.65625 0.484375 "/></g></g></g><path stroke-linecap="butt" transform="matrix(0, 0.75, -0.75, 0, 435.209213, 34.892578)" fill="none" stroke-linejoin="miter" d="M -0.00260406 1.497701 L 106.960944 1.497701 " stroke="#ffffff" stroke-width="3" stroke-opacity="1" stroke-miterlimit="4"/></svg>