<svg xmlns="http://www.w3.org/2000/svg" xmlns:xlink="http://www.w3.org/1999/xlink" width="1024" zoomAndPan="magnify" viewBox="0 0 768 149.999998" height="200" preserveAspectRatio="xMidYMid meet" version="1.0"><defs><g/><clipPath id="1faeba4fb8"><path d="M 0.878906 48 L 38 48 L 38 98 L 0.878906 98 Z M 0.878906 48 " clip-rule="nonzero"/></clipPath><clipPath id="786e5dddcf"><path d="M 417 34 L 704.800781 34 L 704.800781 114 L 417 114 Z M 417 34 " clip-rule="nonzero"/></clipPath><clipPath id="7ad55a2d29"><rect x="0" width="288" y="0" height="80"/></clipPath><clipPath id="80b45de37a"><rect x="0" width="705" y="0" height="149"/></clipPath></defs><g transform="matrix(1, 0, 0, 1, 38, -0.000000000000007527)"><g clip-path="url(#80b45de37a)"><g clip-path="url(#1faeba4fb8)"><path fill="#ffffff" d="M 0.917969 72.921875 L 0.917969 97.558594 L 12.714844 97.558594 L 12.714844 83.679688 L 18.683594 83.679688 L 22.363281 90.621094 L 25.96875 97.558594 L 37.839844 97.558594 L 34.296875 90.964844 C 32.355469 87.289062 30.757812 84.164062 30.757812 84.027344 C 30.757812 83.816406 32.355469 83.679688 34.230469 83.679688 L 37.699219 83.679688 L 37.699219 48.285156 L 0.917969 48.285156 Z M 25.902344 65.980469 L 25.902344 72.574219 L 12.714844 72.574219 L 12.714844 59.390625 L 25.902344 59.390625 Z M 25.902344 65.980469 " fill-opacity="1" fill-rule="nonzero"/></g><path fill="#ffffff" d="M 42.558594 72.921875 L 42.558594 97.558594 L 54.355469 97.558594 L 54.355469 83.679688 L 67.542969 83.679688 L 67.542969 97.558594 L 79.339844 97.558594 L 79.339844 48.285156 L 42.558594 48.285156 Z M 63.308594 56.058594 L 64.835938 60.707031 L 70.527344 60.914062 L 76.21875 61.125 L 71.914062 64.175781 C 69.484375 65.914062 67.542969 67.785156 67.542969 68.410156 C 67.542969 69.035156 68.167969 71.394531 68.929688 73.617188 C 69.691406 75.835938 70.316406 77.917969 70.316406 78.265625 C 70.316406 78.542969 68.234375 77.292969 65.667969 75.488281 L 61.019531 72.089844 L 56.507812 75.421875 C 54.007812 77.226562 51.855469 78.683594 51.789062 78.542969 C 51.648438 78.472656 52.34375 76.113281 53.316406 73.269531 C 54.21875 70.492188 54.839844 67.996094 54.632812 67.648438 C 54.496094 67.371094 52.414062 65.703125 50.054688 64.109375 L 45.820312 61.125 L 51.578125 60.777344 L 57.339844 60.429688 L 59.074219 55.363281 C 59.976562 52.519531 61.019531 50.503906 61.296875 50.851562 C 61.574219 51.128906 62.476562 53.488281 63.308594 56.058594 Z M 63.308594 56.058594 " fill-opacity="1" fill-rule="nonzero"/><path fill="#ffffff" d="M 82.808594 53.835938 L 82.808594 59.390625 L 95.300781 59.390625 L 95.300781 97.558594 L 107.792969 97.558594 L 107.792969 59.390625 L 120.285156 59.390625 L 120.285156 48.285156 L 82.808594 48.285156 Z M 82.808594 53.835938 " fill-opacity="1" fill-rule="nonzero"/><path fill="#ffffff" d="M 123.757812 72.921875 L 123.757812 97.558594 L 160.539062 97.558594 L 160.539062 87.148438 L 148.253906 87.011719 L 135.902344 86.800781 L 135.695312 82.429688 L 135.484375 78.128906 L 160.539062 78.128906 L 160.539062 67.71875 L 135.554688 67.71875 L 135.554688 59.390625 L 160.539062 59.390625 L 160.539062 48.285156 L 123.757812 48.285156 Z M 123.757812 72.921875 " fill-opacity="1" fill-rule="nonzero"/><path fill="#ffffff" d="M 168.019531 63.179688 L 168.019531 78.308594 L 193.824219 78.308594 L 193.824219 87.207031 L 168.019531 87.207031 L 168.019531 97.886719 L 206.28125 97.886719 L 206.28125 67.628906 L 180.476562 67.628906 L 180.476562 58.730469 L 206.28125 58.730469 L 206.28125 48.054688 L 168.019531 48.054688 Z M 168.019531 63.179688 " fill-opacity="1" fill-rule="nonzero"/><path fill="#ffffff" d="M 209.839844 53.394531 L 209.839844 58.730469 L 222.300781 58.730469 L 222.300781 97.886719 L 234.757812 97.886719 L 234.757812 58.730469 L 247.214844 58.730469 L 247.214844 48.054688 L 209.839844 48.054688 Z M 209.839844 53.394531 " fill-opacity="1" fill-rule="nonzero"/><path fill="#ffffff" d="M 250.773438 72.96875 L 250.773438 97.886719 L 288.148438 97.886719 L 288.148438 48.054688 L 276.582031 48.054688 L 276.582031 87.207031 L 263.234375 87.207031 L 263.234375 48.054688 L 250.773438 48.054688 Z M 250.773438 72.96875 " fill-opacity="1" fill-rule="nonzero"/><path fill="#ffffff" d="M 292.597656 72.96875 L 292.597656 97.886719 L 305.054688 97.886719 L 305.054688 78.308594 L 329.972656 78.308594 L 329.972656 67.628906 L 305.054688 67.628906 L 305.054688 58.730469 L 329.972656 58.730469 L 329.972656 48.054688 L 292.597656 48.054688 Z M 292.597656 72.96875 " fill-opacity="1" fill-rule="nonzero"/><path fill="#ffffff" d="M 335.3125 72.96875 L 335.3125 97.886719 L 346.878906 97.886719 L 346.878906 78.308594 L 372.683594 78.308594 L 372.683594 67.628906 L 346.878906 67.628906 L 346.878906 58.730469 L 372.683594 58.730469 L 372.683594 48.054688 L 335.3125 48.054688 Z M 335.3125 72.96875 " fill-opacity="1" fill-rule="nonzero"/><g clip-path="url(#786e5dddcf)"><g transform="matrix(1, 0, 0, 1, 417, 34)"><g clip-path="url(#7ad55a2d29)"><g fill="#ffffff" fill-opacity="1"><g transform="translate(0.369658, 58.856444)"><g><path d="M 7.734375 -30.953125 C 7.734375 -34.160156 8.570312 -36.59375 10.25 -38.25 C 11.925781 -39.914062 14.351562 -40.75 17.53125 -40.75 L 22.34375 -40.75 L 22.34375 -36.46875 L 17.96875 -36.46875 C 15.976562 -36.46875 14.53125 -36.003906 13.625 -35.078125 C 12.726562 -34.160156 12.28125 -32.695312 12.28125 -30.6875 L 12.28125 -28.078125 L 22.078125 -28.078125 L 22.078125 -23.921875 L 12.28125 -23.921875 L 12.28125 0 L 7.734375 0 L 7.734375 -23.921875 L 1.625 -23.921875 L 1.625 -28.078125 L 7.734375 -28.078125 Z M 7.734375 -30.953125 "/></g></g></g><g fill="#ffffff" fill-opacity="1"><g transform="translate(22.389975, 58.856444)"><g><path d="M 17.6875 0.703125 C 14.769531 0.703125 12.191406 0.0703125 9.953125 -1.1875 C 7.710938 -2.445312 5.960938 -4.195312 4.703125 -6.4375 C 3.441406 -8.675781 2.8125 -11.21875 2.8125 -14.0625 C 2.8125 -16.945312 3.441406 -19.488281 4.703125 -21.6875 C 5.960938 -23.894531 7.710938 -25.628906 9.953125 -26.890625 C 12.191406 -28.148438 14.769531 -28.78125 17.6875 -28.78125 C 20.613281 -28.78125 23.191406 -28.148438 25.421875 -26.890625 C 27.660156 -25.628906 29.410156 -23.894531 30.671875 -21.6875 C 31.941406 -19.488281 32.578125 -16.945312 32.578125 -14.0625 C 32.578125 -11.21875 31.941406 -8.675781 30.671875 -6.4375 C 29.410156 -4.195312 27.660156 -2.445312 25.421875 -1.1875 C 23.191406 0.0703125 20.613281 0.703125 17.6875 0.703125 Z M 7.359375 -14.0625 C 7.359375 -12.007812 7.800781 -10.195312 8.6875 -8.625 C 9.570312 -7.0625 10.785156 -5.84375 12.328125 -4.96875 C 13.878906 -4.101562 15.664062 -3.671875 17.6875 -3.671875 C 19.707031 -3.671875 21.492188 -4.101562 23.046875 -4.96875 C 24.597656 -5.84375 25.816406 -7.0625 26.703125 -8.625 C 27.585938 -10.195312 28.03125 -12.007812 28.03125 -14.0625 C 28.03125 -16.125 27.585938 -17.929688 26.703125 -19.484375 C 25.816406 -21.035156 24.597656 -22.25 23.046875 -23.125 C 21.492188 -24.007812 19.707031 -24.453125 17.6875 -24.453125 C 15.664062 -24.453125 13.878906 -24.007812 12.328125 -23.125 C 10.785156 -22.25 9.570312 -21.035156 8.6875 -19.484375 C 7.800781 -17.929688 7.359375 -16.125 7.359375 -14.0625 Z M 7.359375 -14.0625 "/></g></g></g><g fill="#ffffff" fill-opacity="1"><g transform="translate(57.773994, 58.856444)"><g><path d="M 5.03125 0 L 5.03125 -28.078125 L 8.765625 -28.078125 L 9.3125 -23.21875 C 10.320312 -24.90625 11.570312 -26.132812 13.0625 -26.90625 C 14.5625 -27.6875 16.503906 -28.078125 18.890625 -28.078125 L 21.421875 -28.078125 L 21.421875 -23.859375 L 18.671875 -23.859375 C 16.972656 -23.859375 15.4375 -23.515625 14.0625 -22.828125 C 12.695312 -22.148438 11.609375 -21.015625 10.796875 -19.421875 C 9.984375 -17.835938 9.578125 -15.710938 9.578125 -13.046875 L 9.578125 0 Z M 5.03125 0 "/></g></g></g><g fill="#ffffff" fill-opacity="1"><g transform="translate(80.389449, 58.856444)"><g/></g></g><g fill="#ffffff" fill-opacity="1"><g transform="translate(93.807234, 58.856444)"><g><path d="M 5.515625 0 L 5.515625 -37.875 L 20.1875 -37.875 C 23.820312 -37.875 26.726562 -36.960938 28.90625 -35.140625 C 31.09375 -33.316406 32.1875 -30.875 32.1875 -27.8125 C 32.1875 -25.96875 31.753906 -24.34375 30.890625 -22.9375 C 30.023438 -21.53125 28.816406 -20.429688 27.265625 -19.640625 C 29.210938 -18.847656 30.703125 -17.675781 31.734375 -16.125 C 32.765625 -14.570312 33.28125 -12.734375 33.28125 -10.609375 C 33.28125 -7.328125 32.171875 -4.738281 29.953125 -2.84375 C 27.734375 -0.945312 24.710938 0 20.890625 0 Z M 10.28125 -4.4375 L 20.78125 -4.4375 C 23.226562 -4.4375 25.109375 -4.992188 26.421875 -6.109375 C 27.742188 -7.234375 28.40625 -8.804688 28.40625 -10.828125 C 28.40625 -12.847656 27.738281 -14.40625 26.40625 -15.5 C 25.070312 -16.601562 23.175781 -17.15625 20.71875 -17.15625 L 10.28125 -17.15625 Z M 10.28125 -21.484375 L 20.078125 -21.484375 C 22.421875 -21.484375 24.210938 -22.003906 25.453125 -23.046875 C 26.703125 -24.097656 27.328125 -25.5625 27.328125 -27.4375 C 27.328125 -29.34375 26.691406 -30.816406 25.421875 -31.859375 C 24.160156 -32.910156 22.378906 -33.4375 20.078125 -33.4375 L 10.28125 -33.4375 Z M 10.28125 -21.484375 "/></g></g></g><g fill="#ffffff" fill-opacity="1"><g transform="translate(130.111013, 58.856444)"><g><path d="M 5.03125 0 L 5.03125 -28.078125 L 8.765625 -28.078125 L 9.3125 -23.21875 C 10.320312 -24.90625 11.570312 -26.132812 13.0625 -26.90625 C 14.5625 -27.6875 16.503906 -28.078125 18.890625 -28.078125 L 21.421875 -28.078125 L 21.421875 -23.859375 L 18.671875 -23.859375 C 16.972656 -23.859375 15.4375 -23.515625 14.0625 -22.828125 C 12.695312 -22.148438 11.609375 -21.015625 10.796875 -19.421875 C 9.984375 -17.835938 9.578125 -15.710938 9.578125 -13.046875 L 9.578125 0 Z M 5.03125 0 "/></g></g></g><g fill="#ffffff" fill-opacity="1"><g transform="translate(151.427955, 58.856444)"><g><path d="M 14.234375 0.4375 C 10.835938 0.4375 8.179688 -0.328125 6.265625 -1.859375 C 4.359375 -3.398438 3.40625 -5.484375 3.40625 -8.109375 C 3.40625 -10.671875 4.289062 -12.707031 6.0625 -14.21875 C 7.832031 -15.738281 10.175781 -16.5 13.09375 -16.5 L 24.5625 -16.5 L 24.5625 -17.53125 C 24.5625 -19.726562 23.875 -21.445312 22.5 -22.6875 C 21.132812 -23.9375 19.257812 -24.5625 16.875 -24.5625 C 15.070312 -24.5625 13.503906 -24.15625 12.171875 -23.34375 C 10.835938 -22.53125 9.9375 -21.441406 9.46875 -20.078125 L 4.875 -20.078125 C 5.488281 -22.773438 6.867188 -24.898438 9.015625 -26.453125 C 11.160156 -28.003906 13.765625 -28.78125 16.828125 -28.78125 C 19.273438 -28.78125 21.421875 -28.320312 23.265625 -27.40625 C 25.109375 -26.488281 26.539062 -25.207031 27.5625 -23.5625 C 28.59375 -21.925781 29.109375 -20.023438 29.109375 -17.859375 L 29.109375 0 L 25.375 0 L 24.890625 -3.890625 C 22.328125 -1.003906 18.773438 0.4375 14.234375 0.4375 Z M 7.953125 -8.171875 C 7.953125 -6.796875 8.53125 -5.691406 9.6875 -4.859375 C 10.84375 -4.035156 12.410156 -3.625 14.390625 -3.625 C 16.335938 -3.625 18.066406 -4 19.578125 -4.75 C 21.097656 -5.507812 22.304688 -6.554688 23.203125 -7.890625 C 24.109375 -9.234375 24.582031 -10.769531 24.625 -12.5 L 13.25 -12.5 C 11.707031 -12.5 10.4375 -12.109375 9.4375 -11.328125 C 8.445312 -10.554688 7.953125 -9.503906 7.953125 -8.171875 Z M 7.953125 -8.171875 "/></g></g></g><g fill="#ffffff" fill-opacity="1"><g transform="translate(184.97243, 58.856444)"><g><path d="M 5.03125 0 L 5.03125 -28.078125 L 8.765625 -28.078125 L 9.25 -23.96875 C 10.476562 -25.664062 11.96875 -26.890625 13.71875 -27.640625 C 15.46875 -28.398438 17.28125 -28.78125 19.15625 -28.78125 C 22.90625 -28.78125 25.828125 -27.585938 27.921875 -25.203125 C 30.015625 -22.828125 31.0625 -19.640625 31.0625 -15.640625 L 31.0625 0 L 26.515625 0 L 26.515625 -15.203125 C 26.515625 -18.054688 25.800781 -20.3125 24.375 -21.96875 C 22.945312 -23.625 21.007812 -24.453125 18.5625 -24.453125 C 16.832031 -24.453125 15.289062 -24.03125 13.9375 -23.1875 C 12.582031 -22.34375 11.515625 -21.144531 10.734375 -19.59375 C 9.960938 -18.039062 9.578125 -16.234375 9.578125 -14.171875 L 9.578125 0 Z M 5.03125 0 "/></g></g></g><g fill="#ffffff" fill-opacity="1"><g transform="translate(220.518749, 58.856444)"><g><path d="M 17.15625 0.703125 C 14.375 0.703125 11.898438 0.0625 9.734375 -1.21875 C 7.578125 -2.5 5.882812 -4.25 4.65625 -6.46875 C 3.425781 -8.6875 2.8125 -11.21875 2.8125 -14.0625 C 2.8125 -16.914062 3.425781 -19.441406 4.65625 -21.640625 C 5.882812 -23.835938 7.578125 -25.578125 9.734375 -26.859375 C 11.898438 -28.140625 14.375 -28.78125 17.15625 -28.78125 C 19.351562 -28.78125 21.367188 -28.375 23.203125 -27.5625 C 25.046875 -26.75 26.597656 -25.601562 27.859375 -24.125 L 27.859375 -40.046875 L 32.40625 -40.046875 L 32.40625 0 L 28.671875 0 L 28.140625 -4.328125 C 26.878906 -2.773438 25.300781 -1.546875 23.40625 -0.640625 C 21.507812 0.253906 19.425781 0.703125 17.15625 0.703125 Z M 7.359375 -14.0625 C 7.359375 -12.039062 7.800781 -10.242188 8.6875 -8.671875 C 9.570312 -7.109375 10.785156 -5.882812 12.328125 -5 C 13.878906 -4.113281 15.664062 -3.671875 17.6875 -3.671875 C 19.75 -3.671875 21.554688 -4.113281 23.109375 -5 C 24.660156 -5.882812 25.867188 -7.109375 26.734375 -8.671875 C 27.597656 -10.242188 28.03125 -12.039062 28.03125 -14.0625 C 28.03125 -16.082031 27.597656 -17.878906 26.734375 -19.453125 C 25.867188 -21.023438 24.660156 -22.25 23.109375 -23.125 C 21.554688 -24.007812 19.75 -24.453125 17.6875 -24.453125 C 15.664062 -24.453125 13.878906 -24.007812 12.328125 -23.125 C 10.785156 -22.25 9.570312 -21.023438 8.6875 -19.453125 C 7.800781 -17.878906 7.359375 -16.082031 7.359375 -14.0625 Z M 7.359375 -14.0625 "/></g></g></g><g fill="#ffffff" fill-opacity="1"><g transform="translate(257.958718, 58.856444)"><g><path d="M 15.203125 0.703125 C 11.523438 0.703125 8.578125 -0.171875 6.359375 -1.921875 C 4.140625 -3.671875 2.992188 -5.96875 2.921875 -8.8125 L 7.40625 -8.8125 C 7.476562 -7.125 8.203125 -5.789062 9.578125 -4.8125 C 10.953125 -3.84375 12.847656 -3.359375 15.265625 -3.359375 C 17.390625 -3.359375 19.0625 -3.726562 20.28125 -4.46875 C 21.507812 -5.207031 22.125 -6.207031 22.125 -7.46875 C 22.125 -8.726562 21.484375 -9.753906 20.203125 -10.546875 C 18.921875 -11.335938 16.910156 -11.96875 14.171875 -12.4375 C 10.566406 -13.050781 7.890625 -14.046875 6.140625 -15.421875 C 4.390625 -16.796875 3.515625 -18.582031 3.515625 -20.78125 C 3.515625 -23.300781 4.476562 -25.265625 6.40625 -26.671875 C 8.34375 -28.078125 11.003906 -28.78125 14.390625 -28.78125 C 17.859375 -28.78125 20.628906 -28.015625 22.703125 -26.484375 C 24.773438 -24.953125 25.898438 -22.796875 26.078125 -20.015625 L 21.59375 -20.015625 C 21.445312 -21.566406 20.75 -22.75 19.5 -23.5625 C 18.257812 -24.375 16.578125 -24.78125 14.453125 -24.78125 C 12.429688 -24.78125 10.851562 -24.425781 9.71875 -23.71875 C 8.582031 -23.019531 8.015625 -22.039062 8.015625 -20.78125 C 8.015625 -19.59375 8.585938 -18.660156 9.734375 -17.984375 C 10.890625 -17.316406 12.929688 -16.695312 15.859375 -16.125 C 23.035156 -14.71875 26.625 -11.796875 26.625 -7.359375 C 26.625 -4.941406 25.585938 -2.992188 23.515625 -1.515625 C 21.441406 -0.0351562 18.671875 0.703125 15.203125 0.703125 Z M 15.203125 0.703125 "/></g></g></g></g></g></g><path stroke-linecap="butt" transform="matrix(0, 0.752463, -0.752463, 0, 397.585627, 34.896094)" fill="none" stroke-linejoin="miter" d="M -0.00207659 1.998233 L 106.606209 1.998233 " stroke="#ffffff" stroke-width="4" stroke-opacity="1" stroke-miterlimit="4"/></g></g></svg>