<svg xmlns="http://www.w3.org/2000/svg" xmlns:xlink="http://www.w3.org/1999/xlink" width="1024" zoomAndPan="magnify" viewBox="0 0 768 97.5" height="130" preserveAspectRatio="xMidYMid meet" version="1.0"><defs><g/><clipPath id="fbfa1bb238"><rect x="0" width="290" y="0" height="80"/></clipPath></defs><path fill="currentColor" d="M 17.230469 46.382812 L 17.230469 72.109375 L 29.546875 72.109375 L 29.546875 57.613281 L 35.78125 57.613281 L 39.621094 64.859375 L 43.390625 72.109375 L 55.78125 72.109375 L 52.085938 65.222656 C 50.054688 61.382812 48.390625 58.121094 48.390625 57.976562 C 48.390625 57.757812 50.054688 57.613281 52.011719 57.613281 L 55.636719 57.613281 L 55.636719 20.65625 L 17.230469 20.65625 Z M 43.316406 39.136719 L 43.316406 46.019531 L 29.546875 46.019531 L 29.546875 32.25 L 43.316406 32.25 Z M 43.316406 39.136719 " fill-opacity="1" fill-rule="nonzero"/><path fill="currentColor" d="M 60.707031 46.382812 L 60.707031 72.109375 L 73.027344 72.109375 L 73.027344 57.613281 L 86.796875 57.613281 L 86.796875 72.109375 L 99.117188 72.109375 L 99.117188 20.65625 L 60.707031 20.65625 Z M 82.375 28.773438 L 83.96875 33.628906 L 89.914062 33.847656 L 95.855469 34.0625 L 91.363281 37.25 C 88.824219 39.0625 86.796875 41.019531 86.796875 41.671875 C 86.796875 42.324219 87.449219 44.789062 88.246094 47.105469 C 89.042969 49.425781 89.695312 51.601562 89.695312 51.960938 C 89.695312 52.253906 87.519531 50.949219 84.839844 49.0625 L 79.984375 45.511719 L 75.273438 48.992188 C 72.664062 50.875 70.417969 52.398438 70.347656 52.253906 C 70.203125 52.179688 70.925781 49.714844 71.941406 46.746094 C 72.882812 43.847656 73.535156 41.238281 73.316406 40.875 C 73.171875 40.585938 71 38.847656 68.535156 37.179688 L 64.113281 34.0625 L 70.128906 33.699219 L 76.144531 33.339844 L 77.957031 28.046875 C 78.898438 25.078125 79.984375 22.976562 80.273438 23.339844 C 80.5625 23.628906 81.507812 26.09375 82.375 28.773438 Z M 82.375 28.773438 " fill-opacity="1" fill-rule="nonzero"/><path fill="currentColor" d="M 102.738281 26.453125 L 102.738281 32.25 L 115.78125 32.25 L 115.78125 72.109375 L 128.828125 72.109375 L 128.828125 32.25 L 141.871094 32.25 L 141.871094 20.65625 L 102.738281 20.65625 Z M 102.738281 26.453125 " fill-opacity="1" fill-rule="nonzero"/><path fill="currentColor" d="M 145.492188 46.382812 L 145.492188 72.109375 L 183.898438 72.109375 L 183.898438 61.238281 L 171.074219 61.09375 L 158.175781 60.875 L 157.957031 56.308594 L 157.738281 51.816406 L 183.898438 51.816406 L 183.898438 40.949219 L 157.8125 40.949219 L 157.8125 32.25 L 183.898438 32.25 L 183.898438 20.65625 L 145.492188 20.65625 Z M 145.492188 46.382812 " fill-opacity="1" fill-rule="nonzero"/><path fill="currentColor" d="M 192.105469 36.160156 L 192.105469 51.957031 L 219.050781 51.957031 L 219.050781 61.246094 L 192.105469 61.246094 L 192.105469 72.394531 L 232.058594 72.394531 L 232.058594 40.804688 L 205.113281 40.804688 L 205.113281 31.515625 L 232.058594 31.515625 L 232.058594 20.367188 L 192.105469 20.367188 Z M 192.105469 36.160156 " fill-opacity="1" fill-rule="nonzero"/><path fill="currentColor" d="M 235.773438 25.941406 L 235.773438 31.515625 L 248.78125 31.515625 L 248.78125 72.394531 L 261.789062 72.394531 L 261.789062 31.515625 L 274.796875 31.515625 L 274.796875 20.367188 L 235.773438 20.367188 Z M 235.773438 25.941406 " fill-opacity="1" fill-rule="nonzero"/><path fill="currentColor" d="M 278.511719 46.382812 L 278.511719 72.394531 L 317.535156 72.394531 L 317.535156 20.367188 L 305.457031 20.367188 L 305.457031 61.246094 L 291.519531 61.246094 L 291.519531 20.367188 L 278.511719 20.367188 Z M 278.511719 46.382812 " fill-opacity="1" fill-rule="nonzero"/><path fill="currentColor" d="M 322.183594 46.382812 L 322.183594 72.394531 L 335.191406 72.394531 L 335.191406 51.957031 L 361.207031 51.957031 L 361.207031 40.804688 L 335.191406 40.804688 L 335.191406 31.515625 L 361.207031 31.515625 L 361.207031 20.367188 L 322.183594 20.367188 Z M 322.183594 46.382812 " fill-opacity="1" fill-rule="nonzero"/><path fill="currentColor" d="M 366.78125 46.382812 L 366.78125 72.394531 L 378.859375 72.394531 L 378.859375 51.957031 L 405.804688 51.957031 L 405.804688 40.804688 L 378.859375 40.804688 L 378.859375 31.515625 L 405.804688 31.515625 L 405.804688 20.367188 L 366.78125 20.367188 Z M 366.78125 46.382812 " fill-opacity="1" fill-rule="nonzero"/><g transform="matrix(1, 0, 0, 1, 461, 9)"><g clip-path="url(#fbfa1bb238)"><g fill="currentColor" fill-opacity="1"><g transform="translate(1.116487, 59.433808)"><g><path d="M 16.953125 -26.71875 L 10.453125 -26.71875 L 10.453125 0 L 5.3125 0 L 5.3125 -26.71875 L 1.296875 -26.71875 L 1.296875 -30.96875 L 5.3125 -30.96875 L 5.3125 -33.171875 C 5.3125 -36.628906 6.203125 -39.160156 7.984375 -40.765625 C 9.773438 -42.367188 12.648438 -43.171875 16.609375 -43.171875 L 16.609375 -38.875 C 14.347656 -38.875 12.753906 -38.429688 11.828125 -37.546875 C 10.910156 -36.660156 10.453125 -35.203125 10.453125 -33.171875 L 10.453125 -30.96875 L 16.953125 -30.96875 Z M 16.953125 -26.71875 "/></g></g></g><g fill="currentColor" fill-opacity="1"><g transform="translate(19.702714, 59.433808)"><g><path d="M 17.859375 0.515625 C 14.953125 0.515625 12.320312 -0.144531 9.96875 -1.46875 C 7.613281 -2.789062 5.765625 -4.664062 4.421875 -7.09375 C 3.085938 -9.519531 2.421875 -12.332031 2.421875 -15.53125 C 2.421875 -18.695312 3.109375 -21.492188 4.484375 -23.921875 C 5.859375 -26.359375 7.734375 -28.222656 10.109375 -29.515625 C 12.484375 -30.816406 15.140625 -31.46875 18.078125 -31.46875 C 21.015625 -31.46875 23.671875 -30.816406 26.046875 -29.515625 C 28.421875 -28.222656 30.296875 -26.367188 31.671875 -23.953125 C 33.046875 -21.546875 33.734375 -18.738281 33.734375 -15.53125 C 33.734375 -12.332031 33.023438 -9.519531 31.609375 -7.09375 C 30.203125 -4.664062 28.289062 -2.789062 25.875 -1.46875 C 23.46875 -0.144531 20.796875 0.515625 17.859375 0.515625 Z M 17.859375 -4.015625 C 19.703125 -4.015625 21.429688 -4.445312 23.046875 -5.3125 C 24.671875 -6.175781 25.976562 -7.472656 26.96875 -9.203125 C 27.96875 -10.941406 28.46875 -13.050781 28.46875 -15.53125 C 28.46875 -18.019531 27.976562 -20.128906 27 -21.859375 C 26.019531 -23.597656 24.738281 -24.890625 23.15625 -25.734375 C 21.582031 -26.578125 19.875 -27 18.03125 -27 C 16.144531 -27 14.421875 -26.578125 12.859375 -25.734375 C 11.296875 -24.890625 10.039062 -23.597656 9.09375 -21.859375 C 8.15625 -20.128906 7.6875 -18.019531 7.6875 -15.53125 C 7.6875 -13.007812 8.144531 -10.878906 9.0625 -9.140625 C 9.988281 -7.410156 11.222656 -6.125 12.765625 -5.28125 C 14.304688 -4.4375 16.003906 -4.015625 17.859375 -4.015625 Z M 17.859375 -4.015625 "/></g></g></g><g fill="currentColor" fill-opacity="1"><g transform="translate(55.8583, 59.433808)"><g><path d="M 9.484375 -25.9375 C 10.390625 -27.707031 11.679688 -29.082031 13.359375 -30.0625 C 15.035156 -31.039062 17.082031 -31.53125 19.5 -31.53125 L 19.5 -26.21875 L 18.140625 -26.21875 C 12.367188 -26.21875 9.484375 -23.09375 9.484375 -16.84375 L 9.484375 0 L 4.34375 0 L 4.34375 -30.96875 L 9.484375 -30.96875 Z M 9.484375 -25.9375 "/></g></g></g><g fill="currentColor" fill-opacity="1"><g transform="translate(76.930226, 59.433808)"><g/></g></g><g fill="currentColor" fill-opacity="1"><g transform="translate(92.013886, 59.433808)"><g><path d="M 24.0625 -20.28125 C 25.5 -20.050781 26.8125 -19.46875 28 -18.53125 C 29.1875 -17.59375 30.125 -16.425781 30.8125 -15.03125 C 31.507812 -13.632812 31.859375 -12.144531 31.859375 -10.5625 C 31.859375 -8.570312 31.347656 -6.773438 30.328125 -5.171875 C 29.316406 -3.566406 27.84375 -2.300781 25.90625 -1.375 C 23.96875 -0.457031 21.679688 0 19.046875 0 L 4.34375 0 L 4.34375 -39.375 L 18.46875 -39.375 C 21.144531 -39.375 23.425781 -38.929688 25.3125 -38.046875 C 27.195312 -37.160156 28.609375 -35.960938 29.546875 -34.453125 C 30.492188 -32.953125 30.96875 -31.257812 30.96875 -29.375 C 30.96875 -27.039062 30.332031 -25.109375 29.0625 -23.578125 C 27.800781 -22.054688 26.132812 -20.957031 24.0625 -20.28125 Z M 9.484375 -22.375 L 18.140625 -22.375 C 20.546875 -22.375 22.40625 -22.9375 23.71875 -24.0625 C 25.039062 -25.195312 25.703125 -26.765625 25.703125 -28.765625 C 25.703125 -30.753906 25.039062 -32.3125 23.71875 -33.4375 C 22.40625 -34.570312 20.507812 -35.140625 18.03125 -35.140625 L 9.484375 -35.140625 Z M 18.59375 -4.234375 C 21.15625 -4.234375 23.148438 -4.835938 24.578125 -6.046875 C 26.003906 -7.253906 26.71875 -8.929688 26.71875 -11.078125 C 26.71875 -13.253906 25.960938 -14.972656 24.453125 -16.234375 C 22.953125 -17.503906 20.941406 -18.140625 18.421875 -18.140625 L 9.484375 -18.140625 L 9.484375 -4.234375 Z M 18.59375 -4.234375 "/></g></g></g><g fill="currentColor" fill-opacity="1"><g transform="translate(126.644157, 59.433808)"><g><path d="M 9.484375 -25.9375 C 10.390625 -27.707031 11.679688 -29.082031 13.359375 -30.0625 C 15.035156 -31.039062 17.082031 -31.53125 19.5 -31.53125 L 19.5 -26.21875 L 18.140625 -26.21875 C 12.367188 -26.21875 9.484375 -23.09375 9.484375 -16.84375 L 9.484375 0 L 4.34375 0 L 4.34375 -30.96875 L 9.484375 -30.96875 Z M 9.484375 -25.9375 "/></g></g></g><g fill="currentColor" fill-opacity="1"><g transform="translate(147.716084, 59.433808)"><g><path d="M 2.421875 -15.59375 C 2.421875 -18.757812 3.0625 -21.535156 4.34375 -23.921875 C 5.625 -26.316406 7.382812 -28.171875 9.625 -29.484375 C 11.875 -30.804688 14.375 -31.46875 17.125 -31.46875 C 19.832031 -31.46875 22.179688 -30.882812 24.171875 -29.71875 C 26.171875 -28.550781 27.660156 -27.082031 28.640625 -25.3125 L 28.640625 -30.96875 L 33.84375 -30.96875 L 33.84375 0 L 28.640625 0 L 28.640625 -5.765625 C 27.628906 -3.953125 26.113281 -2.453125 24.09375 -1.265625 C 22.082031 -0.078125 19.738281 0.515625 17.0625 0.515625 C 14.3125 0.515625 11.820312 -0.160156 9.59375 -1.515625 C 7.375 -2.878906 5.625 -4.785156 4.34375 -7.234375 C 3.0625 -9.679688 2.421875 -12.46875 2.421875 -15.59375 Z M 28.640625 -15.53125 C 28.640625 -17.875 28.171875 -19.910156 27.234375 -21.640625 C 26.296875 -23.367188 25.023438 -24.691406 23.421875 -25.609375 C 21.816406 -26.535156 20.054688 -27 18.140625 -27 C 16.210938 -27 14.457031 -26.546875 12.875 -25.640625 C 11.300781 -24.742188 10.039062 -23.425781 9.09375 -21.6875 C 8.15625 -19.957031 7.6875 -17.925781 7.6875 -15.59375 C 7.6875 -13.21875 8.15625 -11.15625 9.09375 -9.40625 C 10.039062 -7.65625 11.300781 -6.316406 12.875 -5.390625 C 14.457031 -4.472656 16.210938 -4.015625 18.140625 -4.015625 C 20.054688 -4.015625 21.816406 -4.472656 23.421875 -5.390625 C 25.023438 -6.316406 26.296875 -7.65625 27.234375 -9.40625 C 28.171875 -11.15625 28.640625 -13.195312 28.640625 -15.53125 Z M 28.640625 -15.53125 "/></g></g></g><g fill="currentColor" fill-opacity="1"><g transform="translate(185.905419, 59.433808)"><g><path d="M 19.4375 -31.53125 C 23.207031 -31.53125 26.257812 -30.390625 28.59375 -28.109375 C 30.925781 -25.828125 32.09375 -22.539062 32.09375 -18.25 L 32.09375 0 L 27 0 L 27 -17.515625 C 27 -20.597656 26.226562 -22.957031 24.6875 -24.59375 C 23.144531 -26.238281 21.035156 -27.0625 18.359375 -27.0625 C 15.648438 -27.0625 13.492188 -26.210938 11.890625 -24.515625 C 10.285156 -22.828125 9.484375 -20.363281 9.484375 -17.125 L 9.484375 0 L 4.34375 0 L 4.34375 -30.96875 L 9.484375 -30.96875 L 9.484375 -26.5625 C 10.503906 -28.132812 11.890625 -29.351562 13.640625 -30.21875 C 15.390625 -31.09375 17.320312 -31.53125 19.4375 -31.53125 Z M 19.4375 -31.53125 "/></g></g></g><g fill="currentColor" fill-opacity="1"><g transform="translate(222.061005, 59.433808)"><g><path d="M 2.421875 -15.59375 C 2.421875 -18.757812 3.0625 -21.535156 4.34375 -23.921875 C 5.625 -26.316406 7.382812 -28.171875 9.625 -29.484375 C 11.875 -30.804688 14.390625 -31.46875 17.171875 -31.46875 C 19.585938 -31.46875 21.828125 -30.910156 23.890625 -29.796875 C 25.960938 -28.691406 27.546875 -27.234375 28.640625 -25.421875 L 28.640625 -41.8125 L 33.84375 -41.8125 L 33.84375 0 L 28.640625 0 L 28.640625 -5.8125 C 27.628906 -3.96875 26.125 -2.453125 24.125 -1.265625 C 22.125 -0.078125 19.789062 0.515625 17.125 0.515625 C 14.375 0.515625 11.875 -0.160156 9.625 -1.515625 C 7.382812 -2.878906 5.625 -4.785156 4.34375 -7.234375 C 3.0625 -9.679688 2.421875 -12.46875 2.421875 -15.59375 Z M 28.640625 -15.53125 C 28.640625 -17.875 28.171875 -19.910156 27.234375 -21.640625 C 26.296875 -23.367188 25.023438 -24.691406 23.421875 -25.609375 C 21.816406 -26.535156 20.054688 -27 18.140625 -27 C 16.210938 -27 14.457031 -26.546875 12.875 -25.640625 C 11.300781 -24.742188 10.039062 -23.425781 9.09375 -21.6875 C 8.15625 -19.957031 7.6875 -17.925781 7.6875 -15.59375 C 7.6875 -13.21875 8.15625 -11.15625 9.09375 -9.40625 C 10.039062 -7.65625 11.300781 -6.316406 12.875 -5.390625 C 14.457031 -4.472656 16.210938 -4.015625 18.140625 -4.015625 C 20.054688 -4.015625 21.816406 -4.472656 23.421875 -5.390625 C 25.023438 -6.316406 26.296875 -7.65625 27.234375 -9.40625 C 28.171875 -11.15625 28.640625 -13.195312 28.640625 -15.53125 Z M 28.640625 -15.53125 "/></g></g></g><g fill="currentColor" fill-opacity="1"><g transform="translate(260.250351, 59.433808)"><g><path d="M 15.3125 0.515625 C 12.9375 0.515625 10.804688 0.109375 8.921875 -0.703125 C 7.046875 -1.515625 5.5625 -2.644531 4.46875 -4.09375 C 3.375 -5.539062 2.769531 -7.207031 2.65625 -9.09375 L 7.96875 -9.09375 C 8.113281 -7.550781 8.835938 -6.289062 10.140625 -5.3125 C 11.441406 -4.332031 13.144531 -3.84375 15.25 -3.84375 C 17.207031 -3.84375 18.75 -4.273438 19.875 -5.140625 C 21.007812 -6.003906 21.578125 -7.097656 21.578125 -8.421875 C 21.578125 -9.773438 20.972656 -10.78125 19.765625 -11.4375 C 18.566406 -12.101562 16.707031 -12.753906 14.1875 -13.390625 C 11.882812 -13.992188 10.007812 -14.601562 8.5625 -15.21875 C 7.113281 -15.84375 5.867188 -16.765625 4.828125 -17.984375 C 3.796875 -19.210938 3.28125 -20.828125 3.28125 -22.828125 C 3.28125 -24.410156 3.75 -25.859375 4.6875 -27.171875 C 5.632812 -28.492188 6.972656 -29.539062 8.703125 -30.3125 C 10.429688 -31.082031 12.410156 -31.46875 14.640625 -31.46875 C 18.066406 -31.46875 20.832031 -30.597656 22.9375 -28.859375 C 25.050781 -27.128906 26.179688 -24.757812 26.328125 -21.75 L 21.1875 -21.75 C 21.070312 -23.375 20.421875 -24.675781 19.234375 -25.65625 C 18.046875 -26.632812 16.457031 -27.125 14.46875 -27.125 C 12.625 -27.125 11.15625 -26.726562 10.0625 -25.9375 C 8.96875 -25.144531 8.421875 -24.109375 8.421875 -22.828125 C 8.421875 -21.804688 8.75 -20.96875 9.40625 -20.3125 C 10.0625 -19.65625 10.890625 -19.128906 11.890625 -18.734375 C 12.890625 -18.335938 14.273438 -17.894531 16.046875 -17.40625 C 18.265625 -16.800781 20.070312 -16.207031 21.46875 -15.625 C 22.863281 -15.039062 24.0625 -14.164062 25.0625 -13 C 26.0625 -11.832031 26.578125 -10.304688 26.609375 -8.421875 C 26.609375 -6.722656 26.132812 -5.195312 25.1875 -3.84375 C 24.25 -2.488281 22.921875 -1.421875 21.203125 -0.640625 C 19.492188 0.128906 17.53125 0.515625 15.3125 0.515625 Z M 15.3125 0.515625 "/></g></g></g></g></g><path stroke-linecap="butt" transform="matrix(0, 0.746173, -0.746173, 0, 433.441579, 11.309194)" fill="none" stroke-linejoin="miter" d="M -0.000804571 1.497454 L 99.690118 1.497454 " stroke="#ffffff" stroke-width="3" stroke-opacity="1" stroke-miterlimit="4"/></svg>
