<svg xmlns="http://www.w3.org/2000/svg" width="170" height="100" viewBox="0 0 298 175" preserveAspectRatio="xMidYMid meet">
  <g transform="translate(0,175) scale(0.1,-0.1)" fill="currentColor" stroke="none">
    <path d="M340 1245 l0 -355 85 0 85 0 0 100 0 100 43 0 43 0 53 -100 52 -100 86 0 85 0 -51 95 c-28 53 -51 98 -51 100 0 3 23 5 50 5 l50 0 0 255 0 255 -265 0 -265 0 0 -355z m360 100 l0 -95 -95 0 -95 0 0 95 0 95 95 0 95 0 0 -95z"/>
    <path d="M940 1245 l0 -355 85 0 85 0 0 100 0 100 95 0 95 0 0 -100 0 -100 85 0 85 0 0 355 0 355 -265 0 -265 0 0 -355z m299 243 l22 -67 82 -3 82 -3 -62 -44 c-35 -25 -63 -52 -63 -61 0 -9 9 -43 20 -75 11 -32 20 -62 20 -67 0 -4 -30 14 -67 40 l-67 49 -65 -48 c-36 -26 -67 -47 -68 -45 -2 1 8 35 22 76 13 40 22 76 19 81 -2 4 -32 28 -66 51 l-61 43 83 5 83 5 25 73 c13 41 28 70 32 65 4 -4 17 -38 29 -75z"/>
    <path d="M1520 1520 l0 -80 90 0 90 0 0 -275 0 -275 90 0 90 0 0 275 0 275 90 0 90 0 0 80 0 80 -270 0 -270 0 0 -80z"/>
    <path d="M2110 1245 l0 -355 265 0 265 0 0 75 0 75 -177 2 -178 3 -3 63 -3 62 181 0 180 0 0 75 0 75 -180 0 -180 0 0 60 0 60 180 0 180 0 0 80 0 80 -265 0 -265 0 0 -355z"/>
    <path d="M340 550 l0 -170 145 0 145 0 0 -50 0 -50 -145 0 -145 0 0 -60 0 -60 215 0 215 0 0 170 0 170 -145 0 -145 0 0 50 0 50 145 0 145 0 0 60 0 60 -215 0 -215 0 0 -170z"/>
    <path d="M810 660 l0 -60 70 0 70 0 0 -220 0 -220 70 0 70 0 0 220 0 220 70 0 70 0 0 60 0 60 -210 0 -210 0 0 -60z"/>
    <path d="M1270 440 l0 -280 210 0 210 0 0 280 0 280 -65 0 -65 0 0 -220 0 -220 -75 0 -75 0 0 220 0 220 -70 0 -70 0 0 -280z"/>
    <path d="M1740 440 l0 -280 70 0 70 0 0 110 0 110 140 0 140 0 0 60 0 60 -140 0 -140 0 0 50 0 50 140 0 140 0 0 60 0 60 -210 0 -210 0 0 -280z"/>
    <path d="M2220 440 l0 -280 65 0 65 0 0 110 0 110 145 0 145 0 0 60 0 60 -145 0 -145 0 0 50 0 50 145 0 145 0 0 60 0 60 -210 0 -210 0 0 -280z"/>
  </g>
</svg>
