<svg xmlns="http://www.w3.org/2000/svg" xmlns:xlink="http://www.w3.org/1999/xlink" width="512" zoomAndPan="magnify" viewBox="0 0 384 383.999986" height="512" preserveAspectRatio="xMidYMid meet" version="1.0"><defs><g/><clipPath id="84f8219f04"><path d="M 35 35 L 352 35 L 352 352.050781 L 35 352.050781 Z M 35 35 " clip-rule="nonzero"/></clipPath></defs><rect x="-38.4" width="460.8" fill="#ffffff" y="-38.399999" height="460.799983" fill-opacity="1"/><rect x="-38.4" width="460.8" fill="#d9d9d9" y="-38.399999" height="460.799983" fill-opacity="1"/><g clip-path="url(#84f8219f04)"><path fill="#545454" d="M 351.074219 179.710938 C 344.460938 104.316406 285.039062 44.121094 209.785156 36.578125 C 162.15625 31.835938 115.417969 48.375 81.714844 82.035156 C 48.019531 115.699219 31.394531 162.359375 36.121094 210.046875 C 43.683594 286.429688 107.292969 347.398438 184.074219 351.867188 C 187.210938 352.050781 190.335938 352.140625 193.457031 352.140625 C 220.988281 352.140625 247.863281 345.074219 271.703125 331.492188 C 278.28125 327.746094 280.570312 319.375 276.820312 312.796875 C 273.082031 306.230469 264.714844 303.921875 258.128906 307.675781 C 236.199219 320.167969 211.0625 325.984375 185.667969 324.503906 C 122.210938 320.808594 69.648438 270.441406 63.398438 207.34375 C 59.488281 167.867188 73.226562 129.261719 101.089844 101.425781 C 128.957031 73.59375 167.578125 59.914062 207.054688 63.855469 C 268.214844 69.984375 318.394531 120.820312 323.769531 182.105469 C 325.019531 196.339844 324.015625 210.488281 320.785156 224.15625 C 317.296875 238.890625 303.589844 249.105469 288.1875 248.59375 C 275.925781 248.136719 266.320312 238.167969 266.320312 225.898438 L 266.320312 126.351562 C 266.320312 118.785156 260.183594 112.648438 252.617188 112.648438 C 245.046875 112.648438 238.910156 118.785156 238.910156 126.351562 L 238.910156 129.863281 C 225.863281 120.632812 210.085938 115.339844 193.507812 115.339844 C 150.167969 115.339844 114.90625 150.601562 114.90625 193.945312 C 114.90625 237.289062 150.167969 272.546875 193.507812 272.546875 C 213.359375 272.546875 232.070312 264.980469 246.292969 252.109375 C 254.757812 265.941406 269.722656 275.335938 287.167969 275.984375 C 315.816406 277.046875 340.980469 257.894531 347.460938 230.460938 C 351.367188 213.941406 352.578125 196.867188 351.074219 179.710938 Z M 193.507812 245.136719 C 162.78125 245.136719 138.296875 217.925781 142.871094 186.335938 C 145.632812 167.289062 159.414062 151.039062 177.761719 145.21875 C 199.628906 138.28125 221.746094 146.519531 234.324219 163.222656 C 237.441406 167.363281 238.910156 172.527344 238.910156 177.710938 L 238.910156 210.1875 C 238.910156 215.355469 237.453125 220.503906 234.351562 224.632812 C 224.816406 237.320312 209.769531 245.136719 193.511719 245.136719 Z M 193.507812 245.136719 " fill-opacity="1" fill-rule="nonzero"/></g><g fill="#d9d9d9" fill-opacity="1"><g transform="translate(171.984368, 206.999984)"><g><path d="M 8.105469 -21.589844 L 31.921875 -21.589844 L 31.921875 -17.179688 L 12.515625 -17.179688 L 12.515625 0 L 38.933594 0 L 38.933594 -28.015625 L 1.09375 -28.015625 L 1.09375 10.835938 L 38.933594 10.835938 L 38.933594 4.453125 L 8.105469 4.453125 Z M 19.53125 -11.003906 L 31.921875 -11.003906 L 31.921875 -6.382812 L 19.53125 -6.382812 Z M 19.53125 -11.003906 "/></g></g></g></svg>