<svg xmlns="http://www.w3.org/2000/svg" width="430" height="430" fill="none" viewBox="0 0 430 430"><path stroke="#a866ee" stroke-linecap="round" stroke-linejoin="round" stroke-width="18" d="M72.98 295.06h282.499"/><path stroke="#242424" stroke-linecap="round" stroke-linejoin="round" stroke-width="18" d="M230.7 400.88c73.31-8.19 130.31-70.36 130.31-145.85 0-58.62-34.37-109.21-84.05-132.73-5.2-2.46-8.58-7.64-8.58-13.4V68.22h.34c7.18 0 13-5.82 13-13V41.19c0-7.18-5.82-13-13-13H161.29c-7.18 0-13 5.82-13 13v14.03c0 7.18 5.82 13 13 13h.34v39.66c0 5.89-3.36 11.3-8.71 13.76-50.44 23.22-85.46 74.21-85.46 133.38 0 80.63 65.02 146.06 145.48 146.76.43 0 .86.02 1.29.02.27 0 .54 0 .81-.01h1.3c4.31-.04 8.58-.3 12.79-.74.06 0 .13-.01.19-.02.47-.05.93-.1 1.39-.16z"/><path fill="#242424" d="M321.3 261.36c-3.31 0-6-2.69-6-6 0-5.71-.53-11.42-1.57-16.98a6 6 0 0 1 4.8-7 6 6 0 0 1 7 4.8c1.17 6.28 1.77 12.74 1.77 19.18 0 3.31-2.69 6-6 6m-13.06-48.87c-2.07 0-4.09-1.07-5.2-3-6.39-11.04-15.23-20.86-25.57-28.39a5.997 5.997 0 0 1-1.32-8.38 5.997 5.997 0 0 1 8.38-1.32c11.68 8.5 21.68 19.6 28.9 32.09a6 6 0 0 1-2.19 8.2c-.95.55-1.98.81-3 .81z"/></svg>